<svg width="250" height="67" viewBox="0 0 250 67" fill="none" xmlns="http://www.w3.org/2000/svg">
<path d="M39.1775 27.2732C35.7019 25.2666 34.4566 20.751 36.4873 17.2335C38.494 13.758 43.0096 12.5126 46.527 14.5434C50.0025 16.55 51.2479 21.0656 49.2171 24.5831C47.1863 28.1005 42.6949 29.304 39.1775 27.2732Z" fill="white"/>
<path d="M94.2671 39.6094C100.094 29.5177 96.5893 16.4397 86.4976 10.6133C76.3641 4.76269 63.328 8.29109 57.5016 18.3828L41.9805 45.266C41.9805 45.266 81.1153 62.3889 94.2671 39.6094Z" fill="white"/>
<path d="M7.39788 37.1124C3.3363 44.1473 5.73677 53.2381 12.7716 57.2996C19.8065 61.3612 28.8554 58.9366 32.917 51.9017L43.7237 33.1839C43.7656 33.2081 16.5364 21.284 7.39788 37.1124ZM18.2113 47.8779C16.3688 46.8142 15.7317 44.4364 16.7954 42.5939C17.8592 40.7514 20.237 40.1143 22.0794 41.1781C23.9219 42.2418 24.559 44.6196 23.4953 46.4621C22.4734 48.3287 20.0956 48.9659 18.2113 47.8779Z" fill="white"/>
<path d="M113.773 43.7147C112.304 42.8887 111.111 41.7872 110.285 40.3186C109.459 38.8501 109 37.2897 109 35.454C109 33.6183 109.459 32.0579 110.285 30.5893C111.111 29.1207 112.304 28.0193 113.773 27.1932C115.241 26.3671 116.894 26 118.821 26C120.29 26 121.666 26.2754 122.951 26.8261C124.237 27.3768 125.246 28.1111 126.072 29.1207L123.869 31.2318C122.584 29.7632 120.932 29.1207 119.005 29.1207C117.72 29.1207 116.618 29.3961 115.609 29.9468C114.599 30.4975 113.865 31.2318 113.314 32.2415C112.763 33.2511 112.488 34.3525 112.488 35.5458C112.488 36.739 112.763 37.9322 113.314 38.8501C113.865 39.8597 114.691 40.594 115.609 41.1447C116.618 41.6954 117.72 41.9708 119.005 41.9708C120.932 41.9708 122.584 41.2365 123.869 39.7679L126.072 41.879C125.246 42.8887 124.145 43.6229 122.951 44.1737C121.666 44.7244 120.29 44.9997 118.821 44.9997C116.985 44.9997 115.241 44.5408 113.773 43.7147Z" fill="white"/>
<path d="M132.497 43.7147C131.029 42.8887 129.835 41.7872 128.917 40.3186C128.091 38.8501 127.632 37.2897 127.632 35.454C127.632 33.71 128.091 32.0579 128.917 30.5893C129.744 29.1207 130.937 28.0193 132.497 27.1932C133.966 26.3671 135.71 26 137.545 26C139.381 26 141.125 26.3671 142.594 27.1932C144.062 28.0193 145.255 29.1207 146.173 30.5893C146.999 32.0579 147.458 33.6183 147.458 35.454C147.458 37.2897 146.999 38.8501 146.173 40.3186C145.347 41.7872 144.154 42.8887 142.594 43.7147C141.125 44.5408 139.381 44.9079 137.545 44.9079C135.618 44.9997 133.966 44.5408 132.497 43.7147ZM140.85 41.1447C141.859 40.594 142.594 39.8597 143.144 38.8501C143.695 37.8404 143.97 36.739 143.97 35.5458C143.97 34.3525 143.695 33.2511 143.144 32.2415C142.594 31.2318 141.859 30.4975 140.85 29.9468C139.84 29.3961 138.739 29.1207 137.545 29.1207C136.352 29.1207 135.251 29.3961 134.241 29.9468C133.231 30.4975 132.497 31.2318 131.946 32.2415C131.396 33.2511 131.12 34.3525 131.12 35.5458C131.12 36.739 131.396 37.8404 131.946 38.8501C132.497 39.8597 133.231 40.594 134.241 41.1447C135.251 41.6954 136.352 41.9708 137.545 41.9708C138.739 41.9708 139.84 41.6954 140.85 41.1447Z" fill="white"/>
<path d="M167.834 44.7254V32.6096L161.777 42.7061H160.216L154.158 32.7932V44.8172H150.946V26.46H153.791L161.042 38.5757L168.202 26.46H171.047V44.8172H167.834V44.7254Z" fill="white"/>
<path d="M187.752 27.1943C188.945 27.745 189.863 28.4793 190.506 29.4889C191.148 30.4986 191.423 31.6 191.423 32.9768C191.423 34.2618 191.148 35.455 190.506 36.4647C189.863 37.4743 188.945 38.2086 187.752 38.7593C186.559 39.31 185.182 39.5854 183.622 39.5854H179.491V44.909H176.095V26.5518H183.622C185.182 26.3682 186.559 26.6435 187.752 27.1943ZM186.742 35.6386C187.477 34.9961 187.936 34.0782 187.936 32.9768C187.936 31.7836 187.568 30.8657 186.742 30.315C186.008 29.6725 184.815 29.3971 183.346 29.3971H179.4V36.6482H183.346C184.907 36.5564 186.008 36.1893 186.742 35.6386Z" fill="white"/>
<path d="M205.743 40.5042H196.564L194.729 44.7264H191.241L199.501 26.3691H202.898L211.158 44.7264H207.579L205.743 40.5042ZM204.642 37.8424L201.154 29.857L197.758 37.8424H204.642Z" fill="white"/>
<path d="M229.79 26.3691V44.7264H226.944L216.848 32.3352V44.7264H213.452V26.3691H216.297L226.394 38.7603V26.3691H229.79V26.3691Z" fill="white"/>
<path d="M242.641 38.2086V44.6336H239.245V38.2086L232.085 26.2764H235.757L241.08 35.1796L246.496 26.2764H249.892L242.641 38.2086Z" fill="white"/>
</svg>
