<svg width="21" height="20" viewBox="0 0 21 20" fill="none" xmlns="http://www.w3.org/2000/svg">
<path fill-rule="evenodd" clip-rule="evenodd" d="M11.9438 2.88017H15.0122C18.7003 2.88017 20.4994 4.85017 20.4894 8.89017V13.7602C20.4894 17.6202 18.1106 20.0002 14.2426 20.0002H6.73652C2.88852 20.0002 0.499756 17.6202 0.499756 13.7502V6.24017C0.499756 2.10017 2.3388 0.000170661 5.96692 0.000170661H7.5461C8.47662 -0.00982934 9.34516 0.420171 9.91487 1.15017L10.7944 2.32017C11.0743 2.67017 11.494 2.88017 11.9438 2.88017ZM5.86701 13.2902H15.1222C15.532 13.2902 15.8618 12.9502 15.8618 12.5402C15.8618 12.1202 15.532 11.7902 15.1222 11.7902H5.86701C5.44723 11.7902 5.1174 12.1202 5.1174 12.5402C5.1174 12.9502 5.44723 13.2902 5.86701 13.2902Z" fill="#8E7EFC"/>
</svg>
