<svg width="20" height="20" viewBox="0 0 20 20" fill="none" xmlns="http://www.w3.org/2000/svg">
<path fill-rule="evenodd" clip-rule="evenodd" d="M0 8.66993C0 3.88166 3.83835 0 8.57319 0C10.8469 0 13.0276 0.913436 14.6354 2.53936C16.2431 4.16529 17.1464 6.37052 17.1464 8.66993C17.1464 13.4582 13.308 17.3399 8.57319 17.3399C3.83835 17.3399 0 13.4582 0 8.66993ZM17.0045 15.6543L19.5579 17.7164H19.6022C20.1188 18.2388 20.1188 19.0858 19.6022 19.6082C19.0856 20.1306 18.2481 20.1306 17.7315 19.6082L15.6126 17.1784C15.4123 16.9766 15.2997 16.7023 15.2997 16.4164C15.2997 16.1304 15.4123 15.8561 15.6126 15.6543C15.9989 15.2704 16.6182 15.2704 17.0045 15.6543Z" fill="#6E9CFD"/>
</svg>
